<svg width="13" height="15" viewBox="0 0 13 15" fill="none" xmlns="http://www.w3.org/2000/svg">
<path d="M6.5 12.0703C6.05022 12.0703 5.6875 11.7041 5.6875 11.25V9.375C5.6875 8.9209 6.05022 8.55469 6.5 8.55469C6.94978 8.55469 7.3125 8.9209 7.3125 9.375V11.25C7.3125 11.7041 6.94978 12.0703 6.5 12.0703ZM13 7.03126V13.5938C13 14.3701 12.3761 15 11.6071 15H1.39286C0.623884 15 0 14.3701 0 13.5938V7.03126C0 6.25489 0.623884 5.62501 1.39286 5.62501H2.32143V4.21876C2.32143 1.88966 4.20179 -0.00584582 6.51161 1.35478e-05C8.82143 0.00587292 10.6786 1.92775 10.6786 4.25977V5.62501H11.6071C12.3761 5.62501 13 6.25489 13 7.03126ZM3.71429 5.62501H9.28571V4.21876C9.28571 2.66896 8.03504 1.40626 6.5 1.40626C4.96496 1.40626 3.71429 2.66896 3.71429 4.21876V5.62501ZM11.6071 7.03126H1.39286V13.5938H11.6071V7.03126Z" fill="#0093D0"/>
</svg>
