<svg width="38" height="38" viewBox="0 0 38 38" fill="none" xmlns="http://www.w3.org/2000/svg">
<path d="M19.0001 24.5415C22.4992 24.5415 25.3334 21.7073 25.3334 18.2082V9.49984C25.3334 6.00067 22.4992 3.1665 19.0001 3.1665C15.5009 3.1665 12.6667 6.00067 12.6667 9.49984V18.2082C12.6667 21.7073 15.5009 24.5415 19.0001 24.5415Z" stroke="white" stroke-width="3" stroke-linecap="round" stroke-linejoin="round"/>
<path d="M6.88745 15.2793V17.971C6.88745 24.6526 12.3183 30.0835 19 30.0835C25.6816 30.0835 31.1124 24.6526 31.1124 17.971V15.2793" stroke="white" stroke-width="3" stroke-linecap="round" stroke-linejoin="round"/>
<path d="M16.7991 10.1809C18.2241 9.65844 19.7757 9.65844 21.2007 10.1809" stroke="white" stroke-width="3" stroke-linecap="round" stroke-linejoin="round"/>
<path d="M17.7334 13.5373C18.5726 13.3157 19.4434 13.3157 20.2826 13.5373" stroke="white" stroke-width="3" stroke-linecap="round" stroke-linejoin="round"/>
<path d="M19 30.0835V34.8335" stroke="white" stroke-width="3" stroke-linecap="round" stroke-linejoin="round"/>
</svg>
