<svg width="15" height="16" viewBox="0 0 15 16" fill="none" xmlns="http://www.w3.org/2000/svg">
<path d="M1.38672 5.42559L7.16797 0.125886C7.35156 -0.0419619 7.64844 -0.0419619 7.83203 0.125886L13.6133 5.42559C13.7969 5.59344 13.7969 5.86485 13.6133 6.0327L12.8477 6.73266C12.6602 6.90408 12.3594 6.90051 12.1797 6.72552L8.51562 3.25785V12.1431C8.51562 12.3788 8.30469 12.5716 8.04688 12.5716H6.95312C6.69531 12.5716 6.48438 12.3788 6.48438 12.1431V3.25785L2.82422 6.72552C2.64062 6.89694 2.33984 6.90051 2.15625 6.73266L1.39062 6.0327C1.20312 5.86485 1.20312 5.59344 1.38672 5.42559ZM14.5312 14.143H0.46875C0.210938 14.143 0 14.3358 0 14.5715V15.5715C0 15.8072 0.210938 16 0.46875 16H14.5312C14.7891 16 15 15.8072 15 15.5715V14.5715C15 14.3358 14.7891 14.143 14.5312 14.143Z" fill="#0093D0"/>
</svg>
