<svg width="26" height="26" viewBox="0 0 16 16" fill="none" xmlns="http://www.w3.org/2000/svg">
<path d="M13.6523 7.15627L14.6474 6.58183C14.942 6.4118 15.0848 6.06489 14.9967 5.73639C14.6403 4.4073 13.9392 3.2193 12.9949 2.27399C12.7549 2.03374 12.3832 1.98505 12.0891 2.15489L11.0958 2.72858C10.7732 2.49767 10.4289 2.29861 10.0678 2.13421V0.985676C10.0677 0.820249 10.0131 0.659463 9.91223 0.528318C9.81139 0.397172 9.67006 0.303016 9.51019 0.260488C8.20516 -0.0866055 6.81903 -0.0870429 5.51238 0.260457C5.18366 0.347895 4.95475 0.645488 4.95475 0.985645V2.13418C4.59364 2.29858 4.24933 2.49764 3.92666 2.72855L2.93338 2.15486C2.63932 1.98502 2.2676 2.03371 2.0276 2.27396C1.08335 3.21927 0.38216 4.40724 0.025785 5.73636C-0.0623088 6.06486 0.0805038 6.41177 0.375066 6.5818L1.37016 7.15627C1.33203 7.55117 1.33203 7.94883 1.37016 8.34374L0.375066 8.91818C0.0805038 9.08821 -0.0623088 9.43511 0.025785 9.76361C0.38216 11.0927 1.08335 12.2807 2.0276 13.226C2.2676 13.4663 2.63932 13.515 2.93338 13.3451L3.92666 12.7714C4.24932 13.0023 4.59363 13.2014 4.95475 13.3658V14.5143C4.95477 14.6797 5.00945 14.8405 5.11028 14.9717C5.21111 15.1028 5.35245 15.197 5.51232 15.2395C6.81735 15.5866 8.20347 15.5871 9.51013 15.2395C9.83885 15.1521 10.0678 14.8545 10.0678 14.5143V13.3658C10.4289 13.2014 10.7732 13.0023 11.0958 12.7715L12.0891 13.3451C12.3832 13.515 12.7549 13.4663 12.9949 13.2261C13.9392 12.2807 14.6403 11.0927 14.9967 9.76364C15.0848 9.43514 14.942 9.08824 14.6474 8.91821L13.6523 8.34377C13.6905 7.94846 13.6905 7.55158 13.6523 7.15627ZM12.0061 9.12561L13.3755 9.91589C13.1292 10.5811 12.7715 11.1996 12.3177 11.7449L10.948 10.954C9.94853 11.8101 9.80244 11.8939 8.56778 12.3299V13.9111C7.86849 14.0305 7.15402 14.0305 6.45472 13.9111V12.3299C5.22022 11.894 5.0736 11.8098 4.07447 10.954L2.70482 11.7449C2.25106 11.1996 1.89336 10.5811 1.64703 9.91589L3.01638 9.12561C2.77794 7.83502 2.77782 7.66564 3.01638 6.37443L1.64703 5.58414C1.89235 4.92074 2.25047 4.30136 2.70482 3.75511L4.07447 4.54602C5.07397 3.68986 5.2201 3.60608 6.45472 3.17011V1.58893C7.15402 1.46955 7.86849 1.46955 8.56778 1.58893V3.17014C9.80228 3.60608 9.94891 3.69021 10.948 4.54605L12.3177 3.75514C12.7715 4.30042 13.1292 4.91892 13.3755 5.58418L12.0061 6.37446C12.2446 7.66508 12.2447 7.83439 12.0061 9.12561ZM7.51125 4.75002C5.85703 4.75002 4.51125 6.0958 4.51125 7.75002C4.51125 9.40424 5.85703 10.75 7.51125 10.75C9.16547 10.75 10.5113 9.40424 10.5113 7.75002C10.5113 6.0958 9.16547 4.75002 7.51125 4.75002ZM7.51125 9.25002C6.68413 9.25002 6.01125 8.57714 6.01125 7.75002C6.01125 6.92293 6.68413 6.25002 7.51125 6.25002C8.33838 6.25002 9.01125 6.92293 9.01125 7.75002C9.01125 8.57714 8.33838 9.25002 7.51125 9.25002Z" fill="currentColor"/>
</svg>
