
<svg width="12" height="13" viewBox="0 0 12 13" fill="none" xmlns="http://www.w3.org/2000/svg">
<g clip-path="url(#clip0_3423_2665)">
<path d="M8.72143 7.87112C8.08714 7.87112 7.50984 8.11709 7.08368 8.52048L4.64813 7.00775C4.79431 6.54533 4.79431 6.046 4.64813 5.58603L7.08368 4.0733C7.50984 4.4767 8.08714 4.72267 8.72143 4.72267C10.0346 4.72267 11.1 3.66499 11.1 2.36134C11.1 1.05768 10.0346 0 8.72143 0C7.40826 0 6.34286 1.05768 6.34286 2.36134C6.34286 2.60239 6.38002 2.84344 6.45188 3.0722L4.01632 4.58493C3.59016 4.18153 3.01286 3.93556 2.37857 3.93556C1.0654 3.93556 0 4.99324 0 6.29689C0 7.60055 1.0654 8.65823 2.37857 8.65823C3.01286 8.65823 3.59016 8.41226 4.01632 8.00886L6.45188 9.52159C6.38002 9.75281 6.34286 9.9914 6.34286 10.2325C6.34286 11.5361 7.40826 12.5938 8.72143 12.5938C10.0346 12.5938 11.1 11.5361 11.1 10.2325C11.1 8.9288 10.0346 7.87112 8.72143 7.87112ZM8.72143 1.18067C9.37801 1.18067 9.91072 1.70951 9.91072 2.36134C9.91072 3.01316 9.37801 3.542 8.72143 3.542C8.06484 3.542 7.53214 3.01316 7.53214 2.36134C7.53214 1.70951 8.06484 1.18067 8.72143 1.18067ZM2.37857 7.47756C1.72199 7.47756 1.18929 6.94872 1.18929 6.29689C1.18929 5.64507 1.72199 5.11623 2.37857 5.11623C3.03516 5.11623 3.56786 5.64507 3.56786 6.29689C3.56786 6.94872 3.03516 7.47756 2.37857 7.47756ZM8.72143 11.4131C8.06484 11.4131 7.53214 10.8843 7.53214 10.2325C7.53214 9.58063 8.06484 9.05179 8.72143 9.05179C9.37801 9.05179 9.91072 9.58063 9.91072 10.2325C9.91072 10.8843 9.37801 11.4131 8.72143 11.4131Z" fill="#0093D0"/>
</g>
<defs>
<clipPath id="clip0_3423_2665">
<rect width="11.1" height="12.5938" fill="white"/>
</clipPath>
</defs>
</svg>
