<svg width="14" height="16" viewBox="0 0 14 16" fill="none" xmlns="http://www.w3.org/2000/svg">
<g clip-path="url(#clip0_29_2517)">
<path d="M13.1384 2.61531L7.53844 0.115313C7.36625 0.0384375 7.18313 0 7 0C6.81687 0 6.63375 0.0384375 6.46156 0.115313L0.861562 2.61531C0.34 2.84812 0 3.39438 0 4C0 10.2028 3.33938 14.4909 6.46156 15.8847C6.63375 15.9616 6.81687 16 7 16C7.18313 16 7.36625 15.9616 7.53844 15.8847C10.0353 14.77 14 10.915 14 4C14 3.39438 13.66 2.84812 13.1384 2.61531ZM12.4478 5.25H7.75V1.85656L12.5 4C12.5 4.43156 12.48 4.84625 12.4478 5.25ZM6.25 1.8525V5.25H1.53656C1.50062 4.83781 1.47531 4.41875 1.47312 3.985L6.25 1.8525ZM1.7425 6.75H6.25V14.0612C4.30688 12.8212 2.42281 10.2778 1.7425 6.75ZM7.75 14.0547V6.75H12.245C11.5241 10.6159 9.38031 12.9819 7.75 14.0547Z" fill="#0093D0"/>
</g>
<defs>
<clipPath id="clip0_29_2517">
<rect width="14" height="16" fill="white"/>
</clipPath>
</defs>
</svg>
