<svg width="16" height="16" viewBox="0 0 16 16" fill="none" xmlns="http://www.w3.org/2000/svg">
<path d="M7.75 15.5C12.0302 15.5 15.5 12.0302 15.5 7.75C15.5 3.46978 12.0302 0 7.75 0C3.46978 0 0 3.46978 0 7.75C0 12.0302 3.46978 15.5 7.75 15.5ZM4.51881 13.1025L6.18791 11.4334C7.18184 11.8555 8.31691 11.856 9.31209 11.4334L10.9812 13.1025C9.00566 14.3 6.49434 14.3 4.51881 13.1025ZM10.25 7.75C10.25 9.1285 9.1285 10.25 7.75 10.25C6.3715 10.25 5.25 9.1285 5.25 7.75C5.25 6.3715 6.3715 5.25 7.75 5.25C9.1285 5.25 10.25 6.3715 10.25 7.75ZM13.1025 10.9812L11.4334 9.31209C11.8554 8.31816 11.856 7.18309 11.4334 6.18791L13.1025 4.51881C14.3 6.49434 14.3 9.00566 13.1025 10.9812ZM10.9812 2.3975L9.31206 4.06659C8.31812 3.64456 7.18306 3.64403 6.18791 4.06659L4.51881 2.3975C6.49434 1.20003 9.00566 1.20003 10.9812 2.3975ZM2.3975 4.51881L4.06659 6.18791C3.64453 7.18184 3.64403 8.31691 4.06659 9.31209L2.3975 10.9812C1.20003 9.00566 1.20003 6.49434 2.3975 4.51881Z" fill="#0093D0"/>
</svg>
