<svg width="14" height="15" viewBox="0 0 14 15" fill="none" xmlns="http://www.w3.org/2000/svg">
<g clip-path="url(#clip0_29_2505)">
<path d="M7.85156 12.1875H8.55469C8.64793 12.1875 8.73735 12.1505 8.80328 12.0845C8.86921 12.0186 8.90625 11.9292 8.90625 11.8359V5.50781C8.90625 5.41457 8.86921 5.32515 8.80328 5.25922C8.73735 5.19329 8.64793 5.15625 8.55469 5.15625H7.85156C7.75832 5.15625 7.6689 5.19329 7.60297 5.25922C7.53704 5.32515 7.5 5.41457 7.5 5.50781V11.8359C7.5 11.9292 7.53704 12.0186 7.60297 12.0845C7.6689 12.1505 7.75832 12.1875 7.85156 12.1875ZM12.6562 2.34375H10.2419L9.2458 0.682617C9.12079 0.474321 8.94396 0.30196 8.73253 0.182331C8.5211 0.0627019 8.28228 -0.000115529 8.03936 1.59506e-07H5.08564C4.84282 -1.43194e-05 4.60412 0.0628512 4.3928 0.182475C4.18148 0.3021 4.00474 0.474406 3.87979 0.682617L2.88311 2.34375H0.46875C0.34443 2.34375 0.225201 2.39314 0.137294 2.48104C0.049386 2.56895 0 2.68818 0 2.8125L0 3.28125C0 3.40557 0.049386 3.5248 0.137294 3.61271C0.225201 3.70061 0.34443 3.75 0.46875 3.75H0.9375V13.5938C0.9375 13.9667 1.08566 14.3244 1.34938 14.5881C1.6131 14.8518 1.97079 15 2.34375 15H10.7812C11.1542 15 11.5119 14.8518 11.7756 14.5881C12.0393 14.3244 12.1875 13.9667 12.1875 13.5938V3.75H12.6562C12.7806 3.75 12.8998 3.70061 12.9877 3.61271C13.0756 3.5248 13.125 3.40557 13.125 3.28125V2.8125C13.125 2.68818 13.0756 2.56895 12.9877 2.48104C12.8998 2.39314 12.7806 2.34375 12.6562 2.34375ZM5.03437 1.4915C5.05004 1.46543 5.07221 1.44386 5.09871 1.42892C5.1252 1.41398 5.15513 1.40616 5.18555 1.40625H7.93945C7.96982 1.40622 7.99969 1.41405 8.02613 1.42899C8.05257 1.44393 8.07469 1.46547 8.09033 1.4915L8.60186 2.34375H4.52314L5.03437 1.4915ZM10.7812 13.5938H2.34375V3.75H10.7812V13.5938ZM4.57031 12.1875H5.27344C5.36668 12.1875 5.4561 12.1505 5.52203 12.0845C5.58796 12.0186 5.625 11.9292 5.625 11.8359V5.50781C5.625 5.41457 5.58796 5.32515 5.52203 5.25922C5.4561 5.19329 5.36668 5.15625 5.27344 5.15625H4.57031C4.47707 5.15625 4.38765 5.19329 4.32172 5.25922C4.25579 5.32515 4.21875 5.41457 4.21875 5.50781V11.8359C4.21875 11.9292 4.25579 12.0186 4.32172 12.0845C4.38765 12.1505 4.47707 12.1875 4.57031 12.1875Z" fill="#0093D0"/>
</g>
<defs>
<clipPath id="clip0_29_2505">
<rect width="13.125" height="15" fill="white"/>
</clipPath>
</defs>
</svg>
